<?xml version="1.0" encoding="iso-8859-1"?>
<!-- Generator: Adobe Illustrator 18.0.0, SVG Export Plug-In . SVG Version: 6.00 Build 0)  -->
<!DOCTYPE svg PUBLIC "-//W3C//DTD SVG 1.1//EN" "http://www.w3.org/Graphics/SVG/1.1/DTD/svg11.dtd">
<svg xmlns="http://www.w3.org/2000/svg" xmlns:xlink="http://www.w3.org/1999/xlink" version="1.1" id="Capa_1" x="0px" y="0px" viewBox="0 0 60 60" style="enable-background:new 0 0 60 60;" xml:space="preserve" width="512px" height="512px">
<g>
	<path d="M59.707,0.293c-0.391-0.391-1.023-0.391-1.414,0L36,22.586V5c0-0.552-0.447-1-1-1s-1,0.448-1,1v20   c0,0.13,0.027,0.26,0.077,0.382c0.101,0.245,0.296,0.44,0.541,0.541C34.74,25.973,34.87,26,35,26h20c0.553,0,1-0.448,1-1   s-0.447-1-1-1H37.414L59.707,1.707C60.098,1.316,60.098,0.684,59.707,0.293z" fill="#FFFFFF"/>
	<path d="M25.382,34.077C25.26,34.027,25.13,34,25,34H5c-0.553,0-1,0.448-1,1s0.447,1,1,1h17.586L0.293,58.293   c-0.391,0.391-0.391,1.023,0,1.414C0.488,59.902,0.744,60,1,60s0.512-0.098,0.707-0.293L24,37.414V55c0,0.552,0.447,1,1,1   s1-0.448,1-1V35c0-0.13-0.026-0.26-0.077-0.382C25.822,34.373,25.627,34.178,25.382,34.077z" fill="#FFFFFF"/>
</g>
<g>
</g>
<g>
</g>
<g>
</g>
<g>
</g>
<g>
</g>
<g>
</g>
<g>
</g>
<g>
</g>
<g>
</g>
<g>
</g>
<g>
</g>
<g>
</g>
<g>
</g>
<g>
</g>
<g>
</g>
</svg>
