<?xml version="1.0" encoding="iso-8859-1"?>
<!-- Generator: Adobe Illustrator 19.0.0, SVG Export Plug-In . SVG Version: 6.00 Build 0)  -->
<svg xmlns="http://www.w3.org/2000/svg" xmlns:xlink="http://www.w3.org/1999/xlink" version="1.1" id="Capa_1" x="0px" y="0px" viewBox="0 0 51.4 51.4" style="enable-background:new 0 0 51.4 51.4;" xml:space="preserve" width="512px" height="512px">
<g>
	<path d="M1.7,25.2c0.553,0,1-0.447,1-1c0-6.065,4.935-11,11-11h24v8.964L51.4,12.2L37.7,2.236V11.2h-24c-7.168,0-13,5.832-13,13   C0.7,24.753,1.147,25.2,1.7,25.2z M39.7,6.164L48,12.2l-8.3,6.036V6.164z" fill="#FFFFFF"/>
	<path d="M49.7,26.2c-0.553,0-1,0.447-1,1c0,6.065-4.935,11-11,11h-24v-8.964L0,39.2l13.7,9.964V40.2h24c7.168,0,13-5.832,13-13   C50.7,26.647,50.253,26.2,49.7,26.2z M11.7,45.236L3.4,39.2l8.3-6.036V45.236z" fill="#FFFFFF"/>
</g>
<g>
</g>
<g>
</g>
<g>
</g>
<g>
</g>
<g>
</g>
<g>
</g>
<g>
</g>
<g>
</g>
<g>
</g>
<g>
</g>
<g>
</g>
<g>
</g>
<g>
</g>
<g>
</g>
<g>
</g>
</svg>
